# xmcd CD database file
#
# Track frame offsets:
#	150
#	21385
#	49624
#	70957
#	106986
#	129289
#	148695
#	170887
#	193199
#	214262
#	236619
#
# Disc length: 3381 seconds
#
# Revision: 0
# Processed by: cddbd v1.5.2PL0 Copyright (c) Steve Scherf et al.
# Submitted via: CDex 1.51
#
DISCID=a70d330b
DTITLE=Arnaldo y la Cosmopolita - Cosmopolita pa' rato
DYEAR=1900
DGENRE=Salsa
TTITLE0=El divorcio
TTITLE1=Solo
TTITLE2=Pepe Machete
TTITLE3=Llegó la Cosmopolita
TTITLE4=Mia
TTITLE5=Ahora que tu no estás
TTITLE6=Así se compone un Son
TTITLE7=Cuando llega el amor
TTITLE8=Desesperado
TTITLE9=Oye Arnaldo
TTITLE10=Herido
EXTD=
EXTT0=
EXTT1=
EXTT2=
EXTT3=
EXTT4=
EXTT5=
EXTT6=
EXTT7=
EXTT8=
EXTT9=
EXTT10=
PLAYORDER=
